<svg height="512" viewBox="0 0 60 60" width="512" xmlns="http://www.w3.org/2000/svg"><g id="Page-1" fill="none" fill-rule="evenodd"><g id="038---Cannonball" fill-rule="nonzero" transform="translate(0 -1)"><circle id="Oval" cx="30" cy="10" fill="#ffe0b2" r="8"/><path id="Shape" d="m30 2c-.5034323.00135829-1.005629.04990397-1.5.145 3.7641632.72658994 6.4837629 4.0213519 6.4837629 7.855s-2.7195997 7.1284101-6.4837629 7.855c2.9873733.5766142 6.0432406-.5912461 7.8846263-3.0132663s2.1495108-5.67890239.795012-8.40327682-4.1371319-4.44459996-7.1796383-4.43845688z" fill="#dfc49c"/><path id="Shape" d="m30 45v11c0 2.209139-1.790861 4-4 4s-4-1.790861-4-4v-11c0-2.209139 1.790861-4 4-4s4 1.790861 4 4z" fill="#ffe0b2"/><path id="Shape" d="m28.83 42.17c-1.1364666-1.1354529-2.8431583-1.4783679-4.33-.87.4973673.2006086.950329.4972595 1.333.873.7458097.7520799 1.1651142 1.7678245 1.167 2.827v11c-.0032957 1.6269922-.9917334 3.08988-2.5 3.7 1.231565.50515 2.6339915.3623521 3.7384663-.3806582s1.7652863-1.9882089 1.7615337-3.3193418v-11c-.0018942-1.0606427-.4223608-2.0776689-1.17-2.83z" fill="#dfc49c"/><path id="Shape" d="m39.02 27.36-4.19-4.19c-1.2806637-1.2813776-3.2635033-1.5400088-4.83-.63-.3059901.1682755-.5856349.380536-.83.63-.6578336.6572041-1.064719 1.5240467-1.15 2.45-.01.12-.02.25-.02.38s.01.26.02.39c.0853948.9230104.4924414 1.786657 1.15 2.44l.83.83" fill="#ffe0b2"/><path id="Shape" d="m44.02 26v8c-.0008872 1.4327527-.7680117 2.755609-2.0110992 3.4680096-1.2430874.7124006-2.7722642.7055309-4.0089008-.0180096-.3017078-.1621161-.5779858-.36764-.82-.61l-7.18-7.18-7.18 7.18c-.2420142.24236-.5182922.4478839-.82.61-.6120142.3607211-1.3095912.5506555-2.02.55-1.0612728.0013291-2.0794609-.4196715-2.8298947-1.1701053s-1.1714344-1.7686219-1.1701053-2.8298947v-8c0-4.418278 3.581722-8 8-8h12.04c4.418278 0 8 3.581722 8 8z" fill="#ffe0b2"/><path id="Shape" d="m28.33 28.33-8.51 8.51c-.2420142.24236-.5182922.4478839-.82.61-.1659143.0968632-.3387114.1814235-.517.253 1.1472199.4713705 2.4490605.3777209 3.517-.253.3017078-.1621161.5779858-.36764.82-.61l7.01-7.01z" fill="#dfc49c"/><path id="Shape" d="m36.02 18h-3c4.418278 0 8 3.581722 8 8v8c-.0032957 1.6269922-.9917334 3.08988-2.5 3.7 1.2316045.5024769 2.6325778.3585029 3.7362432-.3839629 1.1036653-.7424658 1.7650185-1.985875 1.7637568-3.3160371v-8c0-4.418278-3.581722-8-8-8z" fill="#dfc49c"/><path id="Shape" d="m38 45v11c0 2.209139-1.790861 4-4 4s-4-1.790861-4-4v-11c0-2.209139 1.790861-4 4-4s4 1.790861 4 4z" fill="#ffe0b2"/><path id="Shape" d="m36.83 42.17c-1.1364666-1.1354529-2.8431583-1.4783679-4.33-.87.4973673.2006086.950329.4972595 1.333.873.7458097.7520799 1.1651142 1.7678245 1.167 2.827v11c-.0032957 1.6269922-.9917334 3.08988-2.5 3.7 1.231565.50515 2.6339915.3623521 3.7384663-.3806582s1.7652863-1.9882089 1.7615337-3.3193418v-11c-.0018942-1.0606427-.4223608-2.0776689-1.17-2.83z" fill="#dfc49c"/><path id="Shape" d="m38 37.45v7.55c0-2.209139-1.790861-4-4-4s-4 1.790861-4 4c0-2.209139-1.790861-4-4-4s-4 1.790861-4 4v-7.55c.3017078-.1621161.5779858-.36764.82-.61l7.18-7.18 7.18 7.18c.2420142.24236.5182922.4478839.82.61z" fill="#dfc49c"/><path id="Shape" d="m20.98 27.36 4.19-4.19c1.2806637-1.2813776 3.2635033-1.5400088 4.83-.63" fill="#ffe0b2"/><path id="Shape" d="m8.5 61c-1.93299662 0-3.5-1.5670034-3.5-3.5v-.5c0-.5522847.44771525-1 1-1s1 .4477153 1 1v.5c0 .8284271.67157288 1.5 1.5 1.5s1.5-.6715729 1.5-1.5v-33.5c0-.5522847.4477153-1 1-1s1 .4477153 1 1v33.5c0 1.9329966-1.5670034 3.5-3.5 3.5z" fill="#0377bc"/><path id="Shape" d="m3.5 51c-1.93299662 0-3.5-1.5670034-3.5-3.5v-.5c0-.5522847.44771525-1 1-1s1 .4477153 1 1v.5c.00000001.8284271.67157288 1.5 1.5 1.5s1.49999999-.6715729 1.5-1.5v-33.5c0-.5522847.44771525-1 1-1s1 .4477153 1 1v33.5c0 1.9329966-1.56700338 3.5-3.5 3.5z" fill="#02a9f4"/><path id="Shape" d="m11 21c-.5522847 0-1-.4477153-1-1v-8c0-.5522847.4477153-1 1-1s1 .4477153 1 1v8c0 .5522847-.4477153 1-1 1z" fill="#0377bc"/><path id="Shape" d="m51.5 61c-1.9329966 0-3.5-1.5670034-3.5-3.5v-33.5c0-.5522847.4477153-1 1-1s1 .4477153 1 1v33.5c0 .8284271.6715729 1.5 1.5 1.5s1.5-.6715729 1.5-1.5v-.5c0-.5522847.4477153-1 1-1s1 .4477153 1 1v.5c0 1.9329966-1.5670034 3.5-3.5 3.5z" fill="#0377bc"/><path id="Shape" d="m56.5 51c-1.9329966 0-3.5-1.5670034-3.5-3.5v-33.5c0-.5522847.4477153-1 1-1s1 .4477153 1 1v33.5c0 .8284271.6715729 1.5 1.5 1.5s1.5-.6715729 1.5-1.5v-.5c0-.5522847.4477153-1 1-1s1 .4477153 1 1v.5c0 1.9329966-1.5670034 3.5-3.5 3.5z" fill="#02a9f4"/><path id="Shape" d="m49 21c-.5522847 0-1-.4477153-1-1v-8c0-.5522847.4477153-1 1-1s1 .4477153 1 1v8c0 .5522847-.4477153 1-1 1z" fill="#0377bc"/><g fill="#02a9f4"><path id="Shape" d="m6 11c-.55228475 0-1-.4477153-1-1v-8c0-.55228475.44771525-1 1-1s1 .44771525 1 1v8c0 .5522847-.44771525 1-1 1z"/><path id="Shape" d="m55 11c-.5522847 0-1-.4477153-1-1v-8c0-.55228475.4477153-1 1-1s1 .44771525 1 1v8c0 .5522847-.4477153 1-1 1z"/><path id="Shape" d="m16 14c-.5522847 0-1-.4477153-1-1v-11c0-.55228475.4477153-1 1-1s1 .44771525 1 1v11c0 .5522847-.4477153 1-1 1z"/><path id="Shape" d="m44 14c-.5522847 0-1-.4477153-1-1v-11c0-.55228475.4477153-1 1-1s1 .44771525 1 1v11c0 .5522847-.4477153 1-1 1z"/></g><path id="Shape" d="m21 56c-.0062173 2.1566753 1.3751502 4.0727751 3.423267 4.7484261 2.0481169.675651 4.2984577-.0423886 5.576733-1.7794261.1421488.2019063.2985473.3933942.468.573 1.4311525 1.4282965 3.5816691 1.8540583 5.4490809 1.0788153 1.8674117-.7752429 3.0841066-2.5988789 3.0829191-4.6208153v-17.1c.3358321.0671462.6775217.1006451 1.02.1 2.7600532-.0033061 4.9966939-2.2399468 5-5v-8c-.006061-4.9680501-4.0319499-8.993939-9-9h-.376c2.9732356-2.3937318 4.1130871-6.4026408 2.8440302-10.00258198-1.2690568-3.59994118-4.6709525-6.00778634-8.4880302-6.00778634s-7.2189734 2.40784516-8.4880302 6.00778634c-1.2690569 3.59994118-.1292054 7.60885018 2.8440302 10.00258198h-.376c-4.9680501.006061-8.993939 4.0319499-9 9v8c-.0128165 1.5087904.6621204 2.9413096 1.8337511 3.8920431 1.1716307.9507336 2.7124363 1.3162048 4.1862489.9929569zm5 3c-.796138.0015971-1.560128-.3139606-2.1230837-.8769163s-.8785134-1.3269457-.8769163-2.1230837v-11c0-1.6568542 1.3431458-3 3-3s3 1.3431458 3 3v11c0 1.6568542-1.3431458 3-3 3zm11-3c0 1.6568542-1.3431458 3-3 3s-3-1.3431458-3-3v-11c0-1.6568542 1.3431458-3 3-3s3 1.3431458 3 3zm0-15v.026c-1.0494272-.8099718-2.380832-1.1631824-3.6937553-.9799226-1.3129233.1832599-2.4967211.8875464-3.2842447 1.9539226-.008 0-.014 0-.022 0s-.014 0-.022 0c-.7875236-1.0663762-1.9713214-1.7706627-3.2842447-1.9539226-1.3129233-.1832598-2.6443281.1699508-3.6937553.9799226v-3.026c.1868391-.1360346.3630179-.2861377.527-.449l6.473-6.477 6.478 6.478c.1641169.1527771.3385268.2941093.522.423zm-14-31c0-3.86599325 3.1340068-7 7-7s7 3.13400675 7 7c0 3.8659932-3.1340068 7-7 7-3.8641657-.0044086-6.9955914-3.1358343-7-7zm-5.138 26.127c-.563823-.5643897-.8809798-1.3292337-.882-2.127v-8c.0044086-3.8641657 3.1358343-6.9955914 7-7h12.04c3.8641657.0044086 6.9955914 3.1358343 7 7v8c-.007031 1.2126299-.7394101 2.3032023-1.8592244 2.7685372-1.1198144.4653349-2.4094085.2149863-3.2737756-.6355372l-8.01-8.01c-.4883177-.4846393-.7924304-1.1243368-.86-1.809-.008-.105-.017-.214-.017-.314s.009-.2.016-.29c.0638922-.6928656.3685422-1.341441.861-1.833 1.1751352-1.1661225 3.0708648-1.1661225 4.246 0l4.19 4.19c.3923789.3789722 1.0160848.3735524 1.4018186-.0121814s.3911536-1.0094397.0121814-1.4018186l-4.192-4.193c-1.4627506-1.445652-3.6594256-1.8526491-5.543-1.027-1.8793534-.8271723-4.0735662-.4184114-5.529 1.03l-4.19 4.19c-.3904653.3907415-.3902414 1.0240347.0005 1.4145.3907415.3904653 1.0240347.3902414 1.4145-.0005l4.189-4.19c.5660743-.5625386 1.3329581-.8763456 2.131-.872-.5573148.7368765-.8987025 1.614236-.986 2.534-.011.146-.022.3-.022.461s.011.309.023.48c.1085479 1.155821.6179635 2.2372678 1.44 3.057l.123.123-6.473 6.473c-.1838246.1824206-.393795.3364438-.623.457-1.1790686.6628345-2.6531904.4747092-3.628-.463z" fill="#000"/></g></g></svg>