<svg id="Filledoutline" height="512" viewBox="0 0 512 512" width="512" xmlns="http://www.w3.org/2000/svg"><path d="m184 392h144v64h-144z" fill="#808080"/><path d="m344 304h-176v-230.857l88-25.143 88 25.143z" fill="#0093b9"/><path d="m392 280-40 73.33h-192l-40-73.33 21.21-226.28 2.79-29.72 56 16v216l56 32 56-32v-216l56-16 2.79 29.72z" fill="#676767"/><path d="m370.79 53.72-58.79 18.28v-32l56-16z" fill="#4e4e4f"/><path d="m200 40v32l-58.79-18.28 2.79-29.72z" fill="#4e4e4f"/><path d="m392 464-32-24h-208l-32 24v24h272z" fill="#676767"/><rect fill="#4e4e4f" height="80" rx="16" width="192" x="160" y="328"/><path d="m224 328v24a16 16 0 0 0 16 16h32a16 16 0 0 0 16-16v-24z" fill="#0093b9"/><path d="m352 392v-48a16 16 0 0 0 -16-16h-16v80h16a16 16 0 0 0 16-16z" fill="#808080"/><path d="m160 392v-48a16 16 0 0 1 16-16h16v80h-16a16 16 0 0 1 -16-16z" fill="#808080"/><path d="m184 408h144v16h-144z" fill="#676767"/><path d="m396.8 457.6-32-24a8 8 0 0 0 -4.8-1.6h-24v-16a24.028 24.028 0 0 0 24-24v-36.63l39.023-71.539a8 8 0 0 0 .942-4.578l-24-256a8 8 0 0 0 -10.165-6.945l-56 16a8 8 0 0 0 -5.8 7.692v13.394l-45.8-13.086a7.991 7.991 0 0 0 -4.4 0l-45.8 13.086v-13.394a8 8 0 0 0 -5.8-7.692l-56-16a8 8 0 0 0 -10.163 6.945l-24 256a8 8 0 0 0 .942 4.578l39.021 71.539v36.63a24.028 24.028 0 0 0 24 24v16h-24a8 8 0 0 0 -4.8 1.6l-32 24a8 8 0 0 0 -3.2 6.4v24a8 8 0 0 0 8 8h272a8 8 0 0 0 8-8v-24a8 8 0 0 0 -3.2-6.4zm-180.8-121.6v16a24.028 24.028 0 0 0 24 24h32a24.028 24.028 0 0 0 24-24v-16h16v64h-112v-64zm16 0h48v16a8.009 8.009 0 0 1 -8 8h-32a8.009 8.009 0 0 1 -8-8zm112 56a8.009 8.009 0 0 1 -8 8h-8v-64h8a8.009 8.009 0 0 1 8 8zm16.934-357.661 1.4 14.959-42.334 12.096v-15.36zm-104.934 21.981 48 13.715v181.322l-48 27.429-48-27.429v-181.322zm-64-10.286v15.36l-42.336-12.094 1.4-14.959zm-43.856 19.466 11.856 3.392v163.108h16v-158.537l16 4.572v177.965a8 8 0 0 0 4.031 6.946l56 32a8 8 0 0 0 7.938 0l56-32a8 8 0 0 0 4.031-6.946v-177.965l16-4.572v158.537h16v-163.108l11.856-3.392 19.951 212.81-28.254 51.8a23.98 23.98 0 0 0 -19.553-10.11h-160a23.98 23.98 0 0 0 -19.553 10.11l-28.254-51.8zm19.856 326.5v-48a8.009 8.009 0 0 1 8-8h8v64h-8a8.009 8.009 0 0 1 -8-8zm24 24h128v16h-128zm192 64h-256v-12l26.667-20h202.666l26.667 20z"/><path d="m256 96.246 30.06 7.515 3.88-15.522-32-8a8.009 8.009 0 0 0 -3.88 0l-32 8 3.88 15.522z"/><path d="m256 144.246 30.06 7.515 3.88-15.522-32-8a8.009 8.009 0 0 0 -3.88 0l-32 8 3.88 15.522z"/><path d="m256 192.246 30.06 7.515 3.88-15.522-32-8a8.009 8.009 0 0 0 -3.88 0l-32 8 3.88 15.522z"/><path d="m254.06 224.239-32 8 3.88 15.522 30.06-7.515 30.06 7.515 3.88-15.522-32-8a8.009 8.009 0 0 0 -3.88 0z"/></svg>