<svg id="Layer_1" enable-background="new 0 0 512 512" height="512" viewBox="0 0 512 512" width="512" xmlns="http://www.w3.org/2000/svg"><g><path d="m100.37 34.11h310v447.88h-310z" fill="#889fb5"/><path d="m410.37 34.11v447.88h-18.78v-368.74c-13.23-4.87-23.19-16.53-25.64-30.74h-221.16c-3.24 18.82-19.68 33.19-39.42 33.19-1.69 0-3.36-.11-5-.32v-81.27z" fill="#61798e"/><g fill="#889fb5"><path d="m139.874 0c-4.142 0-7.5 3.358-7.5 7.5v20c0 4.142 3.358 7.5 7.5 7.5s7.5-3.358 7.5-7.5v-20c0-4.142-3.358-7.5-7.5-7.5z"/><path d="m380.874 0c-4.143 0-7.5 3.358-7.5 7.5v20c0 4.142 3.357 7.5 7.5 7.5s7.5-3.358 7.5-7.5v-20c0-4.142-3.358-7.5-7.5-7.5z"/><path d="m180.874 0c-4.142 0-7.5 3.358-7.5 7.5v20c0 4.142 3.358 7.5 7.5 7.5s7.5-3.358 7.5-7.5v-20c0-4.142-3.358-7.5-7.5-7.5z"/></g><g><g><g><path d="m154.63 329.442h40v80h-40z" fill="#ffd071"/><g><path d="m194.63 321.942h-40c-4.142 0-7.5 3.358-7.5 7.5v80c0 4.142 3.358 7.5 7.5 7.5h40c4.143 0 7.5-3.358 7.5-7.5v-80c0-4.142-3.357-7.5-7.5-7.5zm-7.5 15v15h-25v-15zm-25 65v-35h25v35z" fill="#fff"/></g></g><g><path d="m316.63 329.442h40v80h-40z" fill="#ffd071"/><g><path d="m356.63 321.942h-40c-4.142 0-7.5 3.358-7.5 7.5v80c0 4.142 3.358 7.5 7.5 7.5h40c4.143 0 7.5-3.358 7.5-7.5v-80c0-4.142-3.357-7.5-7.5-7.5zm-7.5 15v15h-25v-15zm-25 65v-35h25v35z" fill="#fff"/></g></g><g><path d="m235.63 329.442h40v80h-40z" fill="#ffd071"/><g><path d="m275.63 321.942h-40c-4.142 0-7.5 3.358-7.5 7.5v80c0 4.142 3.358 7.5 7.5 7.5h40c4.143 0 7.5-3.358 7.5-7.5v-80c0-4.142-3.357-7.5-7.5-7.5zm-7.5 15v15h-25v-15zm-25 65v-35h25v35z" fill="#fff"/></g></g></g><g><g><path d="m154.63 214.278h40v80h-40z" fill="#ffd071"/><g><path d="m194.63 206.778h-40c-4.142 0-7.5 3.358-7.5 7.5v80c0 4.142 3.358 7.5 7.5 7.5h40c4.143 0 7.5-3.358 7.5-7.5v-80c0-4.142-3.357-7.5-7.5-7.5zm-7.5 15v15h-25v-15zm-25 65v-35h25v35z" fill="#fff"/></g></g><g><path d="m316.63 214.279h40v80h-40z" fill="#ffd071"/><g><path d="m356.63 206.778h-40c-4.142 0-7.5 3.358-7.5 7.5v80c0 4.142 3.358 7.5 7.5 7.5h40c4.143 0 7.5-3.358 7.5-7.5v-80c0-4.142-3.357-7.5-7.5-7.5zm-7.5 15v15h-25v-15zm-25 65v-35h25v35z" fill="#fff"/></g></g><g><path d="m235.63 214.278h40v80h-40z" fill="#ffd071"/><g><path d="m275.63 206.778h-40c-4.142 0-7.5 3.358-7.5 7.5v80c0 4.142 3.358 7.5 7.5 7.5h40c4.143 0 7.5-3.358 7.5-7.5v-80c0-4.142-3.357-7.5-7.5-7.5zm-7.5 15v15h-25v-15zm-25 65v-35h25v35z" fill="#fff"/></g></g></g><g><g><path d="m154.63 99.115h40v80h-40z" fill="#ffd071"/><g><path d="m194.63 91.615h-40c-4.142 0-7.5 3.358-7.5 7.5v80c0 4.142 3.358 7.5 7.5 7.5h40c4.143 0 7.5-3.358 7.5-7.5v-80c0-4.142-3.357-7.5-7.5-7.5zm-7.5 15v15h-25v-15zm-25 65v-35h25v35z" fill="#fff"/></g></g><g><path d="m316.63 99.115h40v80h-40z" fill="#ffd071"/><g><path d="m356.63 91.615h-40c-4.142 0-7.5 3.358-7.5 7.5v80c0 4.142 3.358 7.5 7.5 7.5h40c4.143 0 7.5-3.358 7.5-7.5v-80c0-4.142-3.357-7.5-7.5-7.5zm-7.5 15v15h-25v-15zm-25 65v-35h25v35z" fill="#fff"/></g></g><g><path d="m235.63 99.115h40v80h-40z" fill="#ffd071"/><g><path d="m275.63 91.615h-40c-4.142 0-7.5 3.358-7.5 7.5v80c0 4.142 3.358 7.5 7.5 7.5h40c4.143 0 7.5-3.358 7.5-7.5v-80c0-4.142-3.357-7.5-7.5-7.5zm-7.5 15v15h-25v-15zm-25 65v-35h25v35z" fill="#fff"/></g></g></g></g><path d="m443.13 27.5v30.01c0 4.14-3.36 7.5-7.5 7.5h-7.76v10.69c0 12.41-10.09 22.5-22.5 22.5-12.4 0-22.5-10.09-22.5-22.5v-10.69h-255v10.69c0 12.41-10.09 22.5-22.5 22.5-12.4 0-22.5-10.09-22.5-22.5v-10.69h-7.24c-4.14 0-7.5-3.36-7.5-7.5v-30.01c0-4.14 3.36-7.5 7.5-7.5h360c4.14 0 7.5 3.36 7.5 7.5z" fill="#dff0f7"/><g><path d="m461 474.48v30.02c0 4.14-3.36 7.5-7.5 7.5h-395c-4.14 0-7.5-3.36-7.5-7.5v-30.02c0-4.14 3.36-7.5 7.5-7.5h66.54c8.4 0 16.28-3.07 22.16-8.65 11.87-11.25 32.86-17.97 56.17-17.97s44.3 6.72 56.17 17.97c5.88 5.58 13.75 8.65 22.16 8.65h171.8c4.14 0 7.5 3.36 7.5 7.5z" fill="#dff0f7"/><path d="m461 474.48v15.5h-179.3c-8.41 0-16.28-3.07-22.16-8.65-11.87-11.25-32.86-17.97-56.17-17.97s-44.3 6.72-56.17 17.97c-5.88 5.58-13.76 8.65-22.16 8.65h-74.04v-15.5c0-4.14 3.36-7.5 7.5-7.5h66.54c8.4 0 16.28-3.07 22.16-8.65 11.87-11.25 32.86-17.97 56.17-17.97s44.3 6.72 56.17 17.97c5.88 5.58 13.75 8.65 22.16 8.65h171.8c4.14 0 7.5 3.36 7.5 7.5z" fill="#c5dbe8"/></g><path d="m443.13 42.65v14.86c0 4.14-3.36 7.5-7.5 7.5h-7.76v10.69c0 12.41-10.09 22.5-22.5 22.5-12.4 0-22.5-10.09-22.5-22.5v-10.69h-255v10.69c0 12.41-10.09 22.5-22.5 22.5-12.4 0-22.5-10.09-22.5-22.5v-10.69h-7.24c-4.14 0-7.5-3.36-7.5-7.5v-14.86z" fill="#c5dbe8"/></g></svg>